
Complete name                    : The.Quiet.Earth.1985.avi
Format                           : AVI
File size                        : 706 MiB
Duration                         : 1h 30mn
Overall bit rate                 : 1 087 Kbps

Video

Format                           : MPEG-4 Visual
Codec ID/Hint                    : XviD
Duration                         : 1h 30mn
Bit rate                         : 946 Kbps
Width                            : 720 pixels
Height                           : 460 pixels
Display aspect ratio             : 1.855
Stream size                      : 615 MiB (87%)
Writing library                  : XviD 1.1.2 (UTC 2006-11-01)

Audio

Format                           : MPEG Audio
Codec ID/Hint                    : MP3
Duration                         : 1h 30mn
Bit rate                         : 128 Kbps
Channel(s)                       : 2 channels
Sampling rate                    : 48.0 KHz
Stream size                      : 83.2 MiB (12%)

Text #1
Language                         : Swedish

Text #2
Language                         : Danish

Text #3
Language                         : Norwegian

Text #4
Language                         : Finnish